<mxfile host="app.diagrams.net" modified="2023-12-06T23:44:55.641Z" agent="Mozilla/5.0 (Windows NT 10.0; Win64; x64) AppleWebKit/537.36 (KHTML, like Gecko) Chrome/119.0.0.0 Safari/537.36" version="22.1.7" etag="gTNmFZzBxykqYP_aIaMp" type="github">
  <diagram name="PÃ¡gina-1" id="EzOI2jMSVR-vbLvIpQ_0">
    <mxGraphModel>
      <root>
        <mxCell id="0" />
        <mxCell id="1" parent="0" />
      </root>
    </mxGraphModel>
  </diagram>
</mxfile>
